<svg width="210px" height="132px" x="0px" y="0px" viewBox="0 0 210 132" xmlns="http://www.w3.org/2000/svg" version="1.1" style="transform: translate(0,0)"><rect x="0" y="0" width="210" height="132" style="fill:#ffffff;"/><g transform="translate(10, 10)" style="fill:#000000;"><rect x="0" y="0" width="2" height="112"/><rect x="4" y="0" width="2" height="112"/></g><g transform="translate(16, 10)" style="fill:#000000;"><rect x="4" y="0" width="4" height="100"/><rect x="12" y="0" width="2" height="100"/><rect x="16" y="0" width="4" height="100"/><rect x="22" y="0" width="6" height="100"/><rect x="34" y="0" width="2" height="100"/><rect x="38" y="0" width="4" height="100"/><rect x="44" y="0" width="2" height="100"/><rect x="52" y="0" width="4" height="100"/><rect x="58" y="0" width="4" height="100"/><rect x="64" y="0" width="6" height="100"/><rect x="72" y="0" width="4" height="100"/><rect x="78" y="0" width="6" height="100"/></g><g transform="translate(100, 10)" style="fill:#000000;"><rect x="2" y="0" width="2" height="112"/><rect x="6" y="0" width="2" height="112"/></g><g transform="translate(110, 10)" style="fill:#000000;"><rect x="0" y="0" width="2" height="100"/><rect x="6" y="0" width="2" height="100"/><rect x="14" y="0" width="4" height="100"/><rect x="20" y="0" width="4" height="100"/><rect x="28" y="0" width="2" height="100"/><rect x="32" y="0" width="6" height="100"/><rect x="42" y="0" width="2" height="100"/><rect x="50" y="0" width="2" height="100"/><rect x="56" y="0" width="2" height="100"/><rect x="66" y="0" width="2" height="100"/><rect x="70" y="0" width="4" height="100"/><rect x="76" y="0" width="4" height="100"/></g><g transform="translate(194, 10)" style="fill:#000000;"><rect x="0" y="0" width="2" height="112"/><rect x="4" y="0" width="2" height="112"/></g></svg>

