<svg xmlns="http://www.w3.org/2000/svg" viewBox="0 0 73 73" shape-rendering="crispEdges"><path fill="#ffffff" d="M0 0h73v73H0z"/><path stroke="#000000" d="M4 4.5h7m3 0h4m4 0h2m2 0h1m1 0h1m1 0h1m1 0h1m1 0h1m2 0h1m2 0h2m1 0h2m2 0h1m1 0h1m1 0h2m2 0h1m1 0h1m1 0h1m2 0h7M4 5.5h1m5 0h1m2 0h2m5 0h1m3 0h2m3 0h1m1 0h3m1 0h1m2 0h1m1 0h2m2 0h1m1 0h1m2 0h3m1 0h1m1 0h1m4 0h1m1 0h1m5 0h1M4 6.5h1m1 0h3m1 0h1m6 0h2m1 0h2m1 0h4m2 0h1m1 0h1m1 0h1m1 0h2m2 0h3m2 0h3m1 0h3m1 0h4m2 0h1m1 0h1m1 0h1m1 0h3m1 0h1M4 7.5h1m1 0h3m1 0h1m3 0h2m2 0h4m1 0h6m2 0h1m5 0h1m4 0h2m2 0h2m1 0h2m1 0h1m2 0h1m1 0h3m2 0h1m1 0h3m1 0h1M4 8.5h1m1 0h3m1 0h1m1 0h1m1 0h2m2 0h1m2 0h1m7 0h2m2 0h8m1 0h3m1 0h3m2 0h4m5 0h1m1 0h1m1 0h3m1 0h1M4 9.5h1m5 0h1m3 0h1m2 0h1m1 0h2m1 0h2m2 0h1m1 0h3m2 0h2m3 0h4m1 0h1m3 0h1m1 0h1m3 0h2m3 0h1m3 0h1m5 0h1M4 10.5h7m1 0h1m1 0h1m1 0h1m1 0h1m1 0h1m1 0h1m1 0h1m1 0h1m1 0h1m1 0h1m1 0h1m1 0h1m1 0h1m1 0h1m1 0h1m1 0h1m1 0h1m1 0h1m1 0h1m1 0h1m1 0h1m1 0h1m1 0h1m1 0h1m1 0h1m1 0h7M12 11.5h2m1 0h2m1 0h7m1 0h1m1 0h1m1 0h5m3 0h2m2 0h1m1 0h3m1 0h2m2 0h1m1 0h1m1 0h2m1 0h1M6 12.5h2m2 0h4m1 0h1m2 0h1m1 0h1m1 0h1m1 0h2m2 0h3m3 0h6m2 0h2m1 0h1m2 0h1m1 0h1m2 0h2m1 0h1m1 0h5m1 0h1M5 13.5h5m2 0h3m2 0h1m3 0h1m1 0h1m1 0h1m2 0h1m5 0h1m1 0h3m2 0h3m1 0h1m2 0h2m5 0h2m1 0h2m1 0h1m2 0h1m1 0h3M4 14.5h4m2 0h2m1 0h1m1 0h2m2 0h1m2 0h4m4 0h1m2 0h1m1 0h1m2 0h1m1 0h4m3 0h1m1 0h3m1 0h1m1 0h6m1 0h1m2 0h3M5 15.5h1m8 0h2m2 0h2m4 0h1m2 0h1m2 0h2m1 0h1m2 0h1m3 0h2m2 0h3m1 0h1m1 0h3m1 0h1m2 0h1m1 0h1m2 0h1m1 0h2M5 16.5h1m2 0h5m3 0h4m1 0h1m3 0h2m3 0h1m5 0h3m3 0h8m1 0h2m1 0h1m3 0h7m1 0h1m1 0h1M4 17.5h3m1 0h1m2 0h5m1 0h1m1 0h2m1 0h4m1 0h1m1 0h3m2 0h1m2 0h1m1 0h1m1 0h1m2 0h3m6 0h1m1 0h1m1 0h1m2 0h2m4 0h1m1 0h1M5 18.5h2m3 0h7m3 0h1m4 0h3m3 0h10m2 0h1m1 0h1m1 0h2m1 0h1m2 0h1m4 0h1m1 0h1m3 0h3m1 0h1M5 19.5h2m1 0h1m4 0h1m2 0h2m5 0h3m3 0h2m3 0h4m1 0h1m3 0h2m3 0h2m5 0h3m3 0h1m1 0h1m1 0h1m2 0h1M4 20.5h2m4 0h1m4 0h1m1 0h1m4 0h1m2 0h2m2 0h1m1 0h2m4 0h5m2 0h1m3 0h2m7 0h1m3 0h1m3 0h2M4 21.5h1m3 0h1m3 0h5m4 0h3m1 0h1m1 0h2m2 0h1m1 0h3m1 0h1m1 0h5m3 0h1m2 0h2m4 0h1m2 0h1m2 0h2m1 0h1m2 0h1M4 22.5h3m2 0h2m1 0h3m2 0h1m2 0h3m3 0h1m1 0h1m2 0h3m1 0h2m1 0h1m1 0h1m2 0h2m2 0h2m2 0h2m7 0h1m1 0h1m1 0h2m1 0h2M4 23.5h1m1 0h1m2 0h1m7 0h2m1 0h3m1 0h3m1 0h2m1 0h3m1 0h3m1 0h1m4 0h1m4 0h4m1 0h1m1 0h1m1 0h1m4 0h4M5 24.5h2m1 0h1m1 0h3m1 0h4m1 0h1m1 0h1m6 0h1m4 0h1m1 0h3m3 0h1m1 0h1m2 0h1m2 0h2m4 0h2m2 0h2m5 0h1m1 0h1M4 25.5h1m1 0h4m2 0h1m1 0h1m1 0h2m1 0h1m1 0h4m2 0h3m1 0h2m1 0h5m2 0h1m2 0h2m1 0h3m1 0h3m2 0h1m1 0h2m5 0h1m1 0h2M6 26.5h1m1 0h1m1 0h2m2 0h1m1 0h1m4 0h2m4 0h1m4 0h1m1 0h7m1 0h1m1 0h2m2 0h3m6 0h2m1 0h1m1 0h7M8 27.5h2m2 0h2m4 0h1m1 0h1m1 0h2m2 0h1m1 0h1m1 0h2m2 0h2m2 0h5m2 0h1m4 0h1m1 0h2m3 0h1m4 0h1m1 0h1m3 0h1M5 28.5h2m2 0h3m3 0h3m2 0h3m2 0h3m2 0h1m1 0h1m1 0h1m2 0h1m1 0h2m1 0h1m3 0h1m2 0h2m1 0h2m3 0h2m1 0h2m1 0h2m3 0h1M4 29.5h3m1 0h2m1 0h4m1 0h2m1 0h2m1 0h7m2 0h1m1 0h5m1 0h2m2 0h1m2 0h3m2 0h4m1 0h1m2 0h2m5 0h1M4 30.5h1m1 0h6m1 0h5m1 0h1m1 0h6m4 0h4m1 0h2m3 0h1m1 0h1m1 0h3m1 0h1m4 0h2m1 0h2m3 0h3m2 0h2M4 31.5h1m1 0h4m3 0h1m1 0h3m1 0h2m1 0h8m1 0h2m4 0h1m1 0h2m1 0h1m1 0h5m3 0h1m2 0h2m1 0h1m1 0h2m1 0h1m1 0h1m1 0h2M6 32.5h1m3 0h1m1 0h2m1 0h1m2 0h1m1 0h1m2 0h1m1 0h3m2 0h4m3 0h1m3 0h1m1 0h1m1 0h6m1 0h1m1 0h1m7 0h2M5 33.5h1m1 0h3m1 0h2m1 0h1m2 0h1m3 0h1m1 0h4m2 0h1m3 0h3m4 0h1m2 0h3m1 0h4m1 0h1m4 0h1m3 0h3m3 0h1M4 34.5h2m1 0h6m4 0h1m1 0h2m3 0h4m1 0h1m4 0h5m4 0h1m1 0h1m2 0h4m2 0h4m2 0h5m2 0h1M5 35.5h4m3 0h1m1 0h4m1 0h2m1 0h2m2 0h2m1 0h2m2 0h2m3 0h1m1 0h2m1 0h1m2 0h1m2 0h1m3 0h1m3 0h2m1 0h1m3 0h3m1 0h1M8 36.5h1m1 0h1m1 0h1m1 0h1m1 0h1m1 0h1m1 0h3m3 0h1m2 0h1m2 0h1m1 0h1m1 0h1m1 0h1m1 0h3m1 0h2m1 0h1m2 0h1m3 0h1m1 0h2m2 0h1m1 0h1m1 0h3m1 0h1M7 37.5h2m3 0h4m4 0h1m1 0h2m1 0h1m4 0h3m1 0h1m3 0h1m3 0h1m3 0h1m1 0h2m3 0h1m1 0h1m1 0h2m1 0h1m3 0h1m3 0h1M5 38.5h2m1 0h8m1 0h2m1 0h3m1 0h1m1 0h1m1 0h3m2 0h8m1 0h1m1 0h3m1 0h1m1 0h2m5 0h2m1 0h5M4 39.5h1m1 0h2m3 0h1m1 0h3m2 0h1m1 0h1m1 0h3m2 0h2m1 0h1m2 0h1m4 0h1m2 0h2m5 0h1m3 0h2m8 0h1m5 0h1M4 40.5h1m5 0h2m1 0h3m3 0h5m1 0h2m1 0h1m1 0h3m1 0h4m1 0h1m1 0h1m7 0h4m2 0h1m5 0h1m4 0h1M4 41.5h2m1 0h1m1 0h1m1 0h3m4 0h1m3 0h1m1 0h1m1 0h1m1 0h2m5 0h3m1 0h3m2 0h2m2 0h1m2 0h2m1 0h2m1 0h1m1 0h2m1 0h2m3 0h1M4 42.5h3m2 0h2m1 0h1m1 0h3m2 0h1m1 0h3m1 0h1m2 0h1m3 0h1m1 0h2m1 0h1m2 0h1m3 0h1m1 0h3m5 0h6m2 0h4m1 0h2M4 43.5h1m2 0h3m2 0h1m2 0h2m2 0h4m3 0h2m2 0h1m2 0h1m2 0h1m1 0h2m4 0h3m1 0h1m1 0h1m2 0h1m2 0h1m1 0h2m1 0h2m3 0h1M5 44.5h3m2 0h2m1 0h1m1 0h3m1 0h1m2 0h5m2 0h2m2 0h2m1 0h3m4 0h2m1 0h3m4 0h2m2 0h2m1 0h2m1 0h1m1 0h1m1 0h1M4 45.5h2m1 0h1m1 0h1m1 0h1m4 0h1m7 0h1m1 0h2m2 0h4m1 0h3m1 0h1m2 0h1m2 0h1m1 0h1m2 0h1m1 0h2m1 0h2m4 0h3m1 0h2M7 46.5h5m2 0h3m4 0h2m1 0h2m4 0h2m1 0h1m1 0h4m2 0h1m1 0h5m1 0h2m1 0h4m1 0h1m3 0h1m1 0h2M4 47.5h1m1 0h1m1 0h2m1 0h4m2 0h3m1 0h1m1 0h1m1 0h3m5 0h1m1 0h1m1 0h3m2 0h1m3 0h4m1 0h7m4 0h5m1 0h1M5 48.5h1m2 0h1m1 0h2m1 0h1m3 0h2m1 0h5m1 0h4m1 0h1m2 0h1m1 0h1m2 0h1m1 0h1m1 0h1m2 0h1m4 0h1m4 0h5m1 0h3m1 0h3M9 49.5h1m4 0h1m3 0h1m1 0h3m2 0h3m1 0h3m5 0h3m1 0h2m1 0h2m2 0h1m2 0h2m5 0h1m2 0h8M4 50.5h1m1 0h1m1 0h3m1 0h3m1 0h2m3 0h1m1 0h1m1 0h1m1 0h6m1 0h1m2 0h1m3 0h1m3 0h2m1 0h1m1 0h2m1 0h1m1 0h1m2 0h4m3 0h2M4 51.5h3m4 0h1m1 0h1m2 0h3m1 0h1m1 0h2m1 0h3m8 0h2m1 0h5m1 0h2m1 0h1m3 0h1m2 0h1m1 0h1m3 0h1m3 0h1m2 0h1M4 52.5h2m1 0h2m1 0h6m1 0h1m2 0h1m1 0h4m1 0h1m2 0h1m2 0h1m1 0h2m1 0h2m1 0h3m1 0h1m1 0h1m1 0h1m2 0h2m1 0h1m2 0h1m2 0h1m1 0h1m1 0h2m1 0h1M5 53.5h1m1 0h2m2 0h1m1 0h2m1 0h3m2 0h1m1 0h1m1 0h1m2 0h2m2 0h1m2 0h2m7 0h1m8 0h3m4 0h1m1 0h2m2 0h3M5 54.5h6m1 0h1m1 0h1m1 0h1m2 0h5m2 0h4m2 0h1m1 0h1m1 0h1m1 0h1m2 0h2m2 0h3m1 0h1m3 0h2m1 0h1m1 0h2m1 0h3m3 0h2M4 55.5h1m1 0h1m4 0h4m2 0h1m3 0h1m1 0h2m1 0h1m4 0h4m1 0h1m2 0h2m1 0h3m1 0h1m1 0h3m3 0h9m1 0h2m1 0h2M4 56.5h2m2 0h3m2 0h2m1 0h1m2 0h3m1 0h2m4 0h2m2 0h2m4 0h1m2 0h1m1 0h1m1 0h1m1 0h2m1 0h1m3 0h1m2 0h1m5 0h1M4 57.5h1m3 0h2m1 0h1m4 0h1m1 0h4m1 0h2m1 0h4m2 0h2m3 0h3m3 0h2m2 0h2m1 0h1m1 0h2m1 0h1m1 0h2m2 0h2m2 0h1M6 58.5h2m1 0h3m1 0h1m3 0h3m2 0h1m6 0h2m3 0h1m1 0h1m2 0h3m3 0h1m3 0h3m2 0h1m1 0h3m7 0h1M4 59.5h1m2 0h1m6 0h1m1 0h1m1 0h3m4 0h4m2 0h7m4 0h4m1 0h1m1 0h4m1 0h1m1 0h2m1 0h1m1 0h3m2 0h1m1 0h1M5 60.5h2m1 0h1m1 0h1m2 0h1m1 0h4m2 0h1m3 0h1m2 0h4m2 0h8m2 0h3m3 0h2m3 0h2m1 0h7m1 0h1m1 0h1M12 61.5h3m1 0h1m4 0h1m1 0h3m5 0h4m3 0h2m1 0h4m1 0h4m1 0h1m3 0h1m2 0h1m1 0h1m3 0h2m2 0h1M4 62.5h7m1 0h3m1 0h4m2 0h5m1 0h1m3 0h1m1 0h1m1 0h1m1 0h1m2 0h2m4 0h1m2 0h2m1 0h3m2 0h3m1 0h1m1 0h1M4 63.5h1m5 0h1m2 0h2m3 0h7m1 0h1m1 0h2m1 0h4m3 0h1m1 0h1m3 0h1m2 0h3m2 0h2m1 0h1m4 0h1m3 0h1M4 64.5h1m1 0h3m1 0h1m2 0h1m1 0h2m1 0h1m1 0h1m5 0h1m1 0h2m3 0h9m1 0h1m5 0h5m6 0h5m1 0h2M4 65.5h1m1 0h3m1 0h1m1 0h6m2 0h1m1 0h1m1 0h2m5 0h2m3 0h2m6 0h1m1 0h1m2 0h3m2 0h3m6 0h1m2 0h1M4 66.5h1m1 0h3m1 0h1m1 0h2m1 0h3m4 0h2m1 0h1m4 0h2m1 0h1m1 0h1m2 0h2m3 0h1m1 0h4m1 0h2m2 0h1m1 0h1m6 0h1m1 0h2m1 0h1M4 67.5h1m5 0h1m2 0h1m5 0h1m1 0h6m1 0h2m2 0h1m1 0h2m1 0h1m2 0h3m4 0h3m3 0h3m2 0h2m1 0h1m1 0h3m1 0h1M4 68.5h7m3 0h1m3 0h2m3 0h1m1 0h2m2 0h3m1 0h3m5 0h1m1 0h4m1 0h2m3 0h3m1 0h2m1 0h5m2 0h1"/></svg>
